<svg width="1290" height="552" viewBox="0 0 1290 552" fill="none" xmlns="http://www.w3.org/2000/svg">
<path d="M12 48.5C143.5 97.5 228.041 146.592 323.5 104.5C450.5 48.5 453.5 166.5 520.5 169C587.5 171.5 631.5 15 753.5 30.5C875.5 46 880.184 135.5 993.5 135.5C1054.5 135.5 1123.17 26.8333 1126 9" stroke="#FFB9F4" stroke-width="3"/>
<path d="M1288 169.493C1208.32 218.484 1157.1 267.567 1099.25 225.482C1022.3 169.493 1020.48 287.471 979.887 289.97C939.29 292.47 912.63 135.999 838.707 151.496C764.784 166.993 761.946 256.477 693.285 256.477C656.324 256.477 614.717 147.83 613 130" stroke="#FFB9F4" stroke-width="3"/>
<path d="M1122.39 2C1157.6 66.6876 1192.88 108.275 1162.63 155.233C1122.39 217.707 1207.18 219.183 1208.98 252.142C1210.78 285.101 1098.31 306.745 1109.45 366.759C1120.59 426.774 1184.91 429.078 1184.91 484.82C1184.91 514.828 1106.82 548.606 1094 550" stroke="#FFB9F4" stroke-width="3"/>
<path d="M161.539 550C133.675 485.312 105.759 443.725 129.694 396.767C161.539 334.293 94.4385 332.817 93.0169 299.858C91.5953 266.899 180.588 245.255 171.774 185.241C162.96 125.226 112.066 122.922 112.066 67.1795C112.066 37.1724 173.859 3.39378 184 2" stroke="#FFB9F4" stroke-width="3"/>
<path d="M2.05526 267.251C76.5485 246.115 125.355 222.566 175.391 251.2C241.959 289.295 249.74 222.627 286.525 224.58C323.311 226.532 339.241 317.364 406.793 314.72C474.346 312.076 481.565 261.631 543.561 267.328C576.934 270.394 608.847 335.38 609.469 345.621" stroke="#FFB9F4" stroke-width="3"/>
<path d="M453.056 405.001C521.527 368.838 564.371 335.657 619.266 353.262C692.3 376.684 686.05 309.856 722.438 304.117C758.826 298.379 793.292 383.914 858.819 367.282C924.346 350.651 920.919 299.808 982.744 292.49C1016.03 288.551 1060.75 345.482 1063.49 355.369" stroke="#FFB9F4" stroke-width="3"/>
<path d="M8 420.493C159.095 469.484 256.233 518.567 365.917 476.482C511.842 420.493 515.289 538.471 592.273 540.97C669.257 543.47 719.813 386.999 859.993 402.496C1000.17 417.993 1005.55 507.477 1135.76 507.477C1205.85 507.477 1284.74 398.83 1288 381" stroke="#FFB9F4" stroke-width="3"/>
</svg>
